<svg xmlns="http://www.w3.org/2000/svg"  viewBox="0 0 64 64" width="64px" height="64px" baseProfile="basic"><linearGradient id="HKkxIoXB1CD4R_igkMuH9a" x1="32" x2="32" y1="47.188" y2="1.595" gradientTransform="matrix(1 0 0 -1 0 56.27)" gradientUnits="userSpaceOnUse"><stop offset="0" stop-color="#1a6dff"/><stop offset="1" stop-color="#c822ff"/></linearGradient><path fill="url(#HKkxIoXB1CD4R_igkMuH9a)" d="M50,55H14c-2.757,0-5-2.243-5-5V14c0-2.757,2.243-5,5-5h36c2.757,0,5,2.243,5,5v36	C55,52.757,52.757,55,50,55z M14,11c-1.654,0-3,1.346-3,3v36c0,1.654,1.346,3,3,3h36c1.654,0,3-1.346,3-3V14c0-1.654-1.346-3-3-3H14	z"/><linearGradient id="HKkxIoXB1CD4R_igkMuH9b" x1="32.5" x2="32.5" y1="41.016" y2="23.015" gradientUnits="userSpaceOnUse"><stop offset="0" stop-color="#e6abff"/><stop offset="1" stop-color="#6dc7ff"/></linearGradient><path fill="url(#HKkxIoXB1CD4R_igkMuH9b)" d="M36,23.037h10V26H36V23.037z M29.204,31.278c0.751-0.366,2.442-1.201,2.442-3.673	c0-4.651-5.07-4.59-6.008-4.59H17v18.001h9.013c0.751-0.001,6.383-0.213,6.383-5.146C32.396,32.688,30.33,31.646,29.204,31.278z M21,26.152h3.67c0.366,0,2.751,0.133,2.751,2.017c0,1.882-1.834,2.199-2.384,2.199H21V26.152z M25.207,37.882H21V33h4.207	c0.913,0,2.925,0.3,2.925,2.532C28.132,37.762,25.572,37.882,25.207,37.882z M43.47,37.675c-0.591,0.368-1.181,0.554-1.97,0.554	c-2.958,0-3.547-2.494-3.547-3.599H48c0-1.105,0-1.921-0.197-2.843C47.605,30.866,46.258,27,41.304,27	c-6.924,0-7.329,5.484-7.291,6.994c0.069,2.765,1.303,4.299,1.899,4.897c0.634,0.637,1.428,1.161,2.239,1.542	c0.984,0.37,1.97,0.554,2.955,0.554c1.574,0,2.955-0.366,4.137-1.104c1.184-0.736,1.971-1.841,2.561-3.314h-3.348	C44.258,36.939,44.061,37.305,43.47,37.675z M41.035,29.486c1.948,0,2.888,2.049,2.979,2.998h-6.358	C37.656,32.299,38.132,29.486,41.035,29.486z"/></svg>