<?xml version="1.0" encoding="UTF-8"?>
<svg id="Capa_1" data-name="Capa 1" xmlns="http://www.w3.org/2000/svg" viewBox="0 0 50 50">
  <defs>
    <style>
      .cls-1 {
        stroke: #1d1d1b;
        stroke-miterlimit: 10;
        stroke-width: .19px;
      }

      .cls-1, .cls-2 {
        fill: #1d1d1b;
      }
    </style>
  </defs>
  <g>
    <ellipse class="cls-2" cx="28.7" cy="10.94" rx="1.07" ry="1.54" transform="translate(-1.44 5.05) rotate(-9.81)"/>
    <ellipse class="cls-2" cx="11.23" cy="10.53" rx="1.54" ry="1.07" transform="translate(-1.39 19.35) rotate(-78.09)"/>
  </g>
  <path class="cls-2" d="m16.95,8.72s5.38-.83,8.7.24c0,0,2.54-3.76,5.08-.83,0,0-3.81-1.03-3.47,3.67,0,0,.78,2.79,2.74,2.98s2.1-1.42,2.1-1.42c0,0,1.22,1.76,0,3.62-1.22,1.86-6.11-1.22-6.11-1.22,0,0-5.82-2.69-9.04-1.47s-5.3,2.46-6.06,3.28c0,0-2.3-1.62-.49-4.65,0,0,.59,1.32,2.59,1.08s2.2-3.46,2.2-3.46c0,0-.59-4.02-3.67-2.55,0,0,2.3-3.32,5.43.73Z"/>
  <path class="cls-1" d="m11.32,17.8s5.12-3.68,8.45-3.22c3.65.5,3.35.4,5.39,1.33,1.14.52.8.77,3.36,1.89.5.22,3.14,1.03,3.14,1.03,0,0-.29,2.88-2.49,5.08s-2.83,2.2-2.83,2.2c-.97,0-1.42,1.57-.56,2.03.29.16,1.1.42,1.39.18.17-.13.18-.63.28-.85.2-.43,1.44-1.89,2.02-1.61l.29.14s.49-.15.34,1.56c-.15,1.71-.49,1.52.39,2.35.43.41.96.22,1.25-.24.46-.73-.13-1.6-.23-2.35-.06-.45-.33-1.47,0-1.86.34-.39,1.42-.24,1.86.15s.98,1.08,1.32,1.08,1.08-.18,1.08-.83-.39-1.33-1.56-1.28c0,0-1.34-.4-1.48-1.03s.74-.78.74-.78c0,0,.91-.4,1.69-.99l3.11,4.85s-24.58,17.06-26.1,18.18l-4.03-5.78s-2.57-4.19-2.62-5.02,0-2.98,0-2.98c0,0,1.22-3.71,4.15-3.18,2.93.54,3.32,3.71,3.32,3.71,0,0,.33,1.2-.45,3.79,0,0-.77,2.12.25,2.56s1.52-.29,1.56-.59-.05-2.15,0-2.49.54-1.42,1.91-.78c0,0,.59.39,1.17,1.56s.1,1.61,1.47,1.32.78-1.81.78-1.81c0,0-1.96-.93-2.35-2.05s.15-1.32.15-1.32l1.03-.2s1.17.2,1.76-.1.68-.63.54-1.34-1-2.16-1.74-1.58-2.07,2.04-3.35,1.58-2.44-2.03-2.44-2.03c0,0-1.27-1.03-1.03-4.4s.77-5.13-.94-5.92Z"/>
  <path class="cls-2" d="m7.79,38.55c-.58-.93-1.15-1.87-1.67-2.84-.89-1.65-1.27-4.07-.33-5.76.78-1.38,2.11-2.51,3.79-2.2,1.25.22,2.25,1.01,2.85,2.12.25.46.38.54.56,1.02.35.98.74,2.41.52,3.47-.2.97-1.27,1.78-1.18,2.79"/>
  <path class="cls-1" d="m2.75,46.41l1.06,1.44c.67.9,1.93,1.13,2.87.51l4.03-2.64c.91-.6,2.14-1.39,2.78-1.78.59-.35-1.75-.5-2.16-1.14l-.5-.78c-.35-.54-.42-1.18-.25-1.75-.22-.12-.43-.28-.63-.47-.14-.14-.25-.35-.31-.58l-6.36,4.15c-1.02.67-1.27,2.06-.54,3.04Z"/>
  <g>
    <polygon class="cls-1" points="38.97 25.85 40.3 24.94 37.18 20.51 35.92 21.3 38.97 25.85"/>
    <g>
      <path class="cls-2" d="m38.17,21.06s3.02-2.55,4.13-4.17c0,0,.02-.16,1.45-.28s4.14-.71,4.78-.98l.19.16-4.56,3.14s-.97-.44-.87.61l-4.11,2.93-1.01-1.42Z"/>
      <path class="cls-2" d="m40.12,23.91s3.48-1.88,5.39-2.31c0,0,.15.04.79-1.25s2.18-3.59,2.66-4.09l-.08-.23-4.59,3.09s.05,1.06-.89.59l-4.23,2.75.95,1.46Z"/>
    </g>
  </g>
  <path class="cls-1" d="m19.41,10.54S14.6,5.35,15.91.48c0,0,2.35,6.1,3.5,6.22,0,0-1.97-3.32-1.2-5.02,0,0,1.18,3.72,2.97,4.59,0,0-.84-1.09-.89-2.52,0,0,.6,1.26,2.52,2.41s1.64,3.39,1.64,3.39l-5.03.98Z"/>
</svg>