<?xml version="1.0" encoding="UTF-8"?>
<svg id="Capa_1" data-name="Capa 1" xmlns="http://www.w3.org/2000/svg" viewBox="0 0 70.21 47.55">
  <defs>
    <style>
      .cls-1 {
        letter-spacing: .05em;
      }

      .cls-2 {
        font-family: BrotherTattoo, 'Brother Tattoo';
        font-size: 23.47px;
      }

      .cls-2, .cls-3, .cls-4, .cls-5 {
        fill: #1d1d1b;
      }

      .cls-3 {
        stroke: #1d1d1b;
        stroke-miterlimit: 10;
        stroke-width: .19px;
      }

      .cls-6 {
        letter-spacing: .05em;
      }

      .cls-7 {
        letter-spacing: .05em;
      }

      .cls-4 {
        font-family: Alevattros-Regular, Alevattros;
        font-size: 24.67px;
      }
    </style>
  </defs>
  <g>
    <text class="cls-2" transform="translate(11.52 44.71)"><tspan class="cls-1" x="0" y="0" xml:space="preserve">  ex-</tspan><tspan class="cls-6" x="33" y="0">tt</tspan><tspan class="cls-7" x="40.6" y="0">oo</tspan></text>
    <text class="cls-4" transform="translate(2.99 43.7)"><tspan x="0" y="0">L</tspan></text>
  </g>
  <g>
    <g>
      <ellipse class="cls-5" cx="57.69" cy="14.73" rx="1.26" ry=".88" transform="translate(19.69 60.57) rotate(-64.67)"/>
      <ellipse class="cls-5" cx="46.22" cy="6.18" rx="1.26" ry=".88" transform="translate(8.17 33.15) rotate(-42.95)"/>
    </g>
    <path class="cls-5" d="m53.55,16.17c-1.41-1.89-3.05-3.94-5.24-4.5-2.36-.61-4.15-.6-5.17-.47-.26.03-.5-.15-.52-.41-.08-.83.02-2.5,1.96-3.37,0,0-.23,1.16,1.23,1.95s3.11-1.28,3.11-1.28c0,0,1.51-2.98-1.26-3.45,0,0,3.12-1.15,3.3,3.06,0,0,4.01,1.99,5.73,4.28,0,0,3.49-1.33,3.81,1.85,0,0-2.08-2.49-4.07.82,0,0-.79,2.24.43,3.3s2.08.04,2.08.04c0,0-.08,1.6-1.71,2.43-1.31.67-2.72-2.31-3.19-3.33"/>
    <path class="cls-3" d="m43.13,12.46c-.07-.25.12-.5.37-.53,1.21-.12,4.05-.25,5.8.96,1.89,1.31,2.3,1.86,3.25,3.44s.96,1.97,1.46,2.7c.46.67,1.43,1.52,1.93,1.94.17.14.18.4.02.55-.59.58-2.06,1.85-3.98,2.18-2.52.44-2.95.14-2.95.14-.66-.46-1.7.38-1.34,1.1.12.24.54.8.85.78.18-.01.42-.34.59-.43.34-.19,1.86-.59,2.12-.13l.13.23s.4.13-.51,1.21-1.05.79-.85,1.76c.1.48.54.6.96.43.65-.27.67-1.14.95-1.69.17-.33.47-1.14.88-1.24.41-.1,1.07.51,1.18.98s.15,1.19.38,1.35.81.38,1.11-.05.36-1.08-.45-1.6c0,0-.71-.9-.51-1.4s.87-.17.87-.17c0,0,.8.16,1.61.14l-.21,4.73s-24.6-.17-26.15-.13l.03-5.79s.25-4.03.61-4.61,1.41-2,1.41-2c0,0,2.58-1.92,4.3-.17s.48,4.07.48,4.07c0,0-.35.97-2.1,2.34,0,0-1.52,1.06-1.04,1.84s1.16.52,1.33.35.98-1.47,1.18-1.68,1.03-.7,1.65.38c0,0,.21.54.05,1.61s-.7,1.13.36,1.58,1.38-.85,1.38-.85c0,0-.87-1.55-.61-2.49s.72-.82.72-.82l.78.35s.7.69,1.23.77.76-.1,1-.65.35-1.93-.42-1.88-2.36.39-3-.52-.68-2.52-.68-2.52c0,0-.37-1.29,1.39-3.44,1.54-1.88,2.67-2.17,2.41-3.1Z"/>
    <path class="cls-5" d="m30.7,23.42c.05-.9.12-1.8.22-2.7.19-1.53,1.07-3.34,2.5-4.02,1.18-.56,2.6-.69,3.59.31.73.74,1.04,1.74.91,2.77-.05.42,0,.54-.11.95-.23.83-.64,1.97-1.29,2.58-.59.56-1.7.59-2.12,1.32"/>
    <path class="cls-3" d="m51.97,10.96s-.78-5.77,2.41-8.42c0,0-1.31,5.21-.59,5.84,0,0,.25-3.16,1.57-3.94,0,0-.96,3.06-.18,4.49,0,0-.05-1.13.59-2.11,0,0-.19,1.13.55,2.81s-.5,3.05-.5,3.05l-3.84-1.72Z"/>
    <path class="cls-3" d="m28.72,27.68c.27.83.86,1.48,1.53,2.03.66,0,1.33,0,1.74,0,.56.01-1-1.12-1-1.74v-.76c0-.53.22-1,.59-1.33-.1-.18-.18-.38-.23-.6-.04-.16-.02-.36.04-.54l-2.24.03c-.48.89-.76,1.9-.43,2.9Z"/>
    <path class="cls-3" d="m26.94,28.01c-.31-1.1-.17-2.19.22-3.21l-2.01.03c-1,.02-1.79.87-1.71,1.87l.11,1.47c.07.92.84,1.63,1.77,1.61l2.5-.04c-.38-.52-.68-1.1-.86-1.74Z"/>
    <g>
      <polygon class="cls-3" points="57.59 29.73 58.92 29.74 58.92 25.29 57.7 25.23 57.59 29.73"/>
      <g>
        <path class="cls-5" d="m59.32,26.13s3.24-.28,4.75-.85c0,0,.09-.1,1.1.5s3.12,1.48,3.68,1.6l.05.2-4.55-.04s-.45-.75-.88,0l-4.15.03v-1.43Z"/>
        <path class="cls-5" d="m59.28,28.97s3.23.38,4.72.99c0,0,.08.1,1.12-.46s3.16-1.38,3.73-1.49l.05-.2-4.55-.1s-.47.74-.88-.02l-4.14-.15-.05,1.43Z"/>
      </g>
    </g>
  </g>
</svg>