<?xml version="1.0" encoding="UTF-8"?>
<svg id="Capa_1" data-name="Capa 1" xmlns="http://www.w3.org/2000/svg" viewBox="0 0 59.03 59.48">
  <defs>
    <style>
      .cls-1 {
        font-family: BerlinSansFBDemi-Bold, 'Berlin Sans FB Demi';
        font-size: 10.81px;
        font-weight: 700;
        letter-spacing: .15em;
      }

      .cls-2 {
        stroke: #1d1d1b;
        stroke-miterlimit: 10;
        stroke-width: .19px;
      }

      .cls-2, .cls-3 {
        fill: #1d1d1b;
      }
    </style>
  </defs>
  <text class="cls-1" transform="translate(4.77 49.83)"><tspan x="0" y="0">lex-ttoo</tspan></text>
  <g>
    <ellipse class="cls-3" cx="43.9" cy="17.36" rx="1.54" ry="1.07" transform="translate(9.84 50.05) rotate(-65.4)"/>
    <ellipse class="cls-3" cx="29.72" cy="7.15" rx="1.54" ry="1.07" transform="translate(3.28 22.5) rotate(-43.67)"/>
  </g>
  <path class="cls-3" d="m35.46,8.89s4.9,2.35,7.04,5.12c0,0,4.22-1.67,4.66,2.19,0,0-2.56-3-4.93,1.06,0,0-.93,2.74.57,4.01s2.53.02,2.53.02c0,0,.01,2.14-2.04,2.98-2.06.84-4.35-4.46-4.35-4.46,0,0-3.28-5.51-6.63-6.32s-5.77-.97-6.86-.72c0,0-.98-2.64,2.23-4.11,0,0-.26,1.42,1.53,2.35s3.77-1.61,3.77-1.61c0,0,1.79-3.65-1.58-4.18,0,0,3.77-1.44,4.06,3.67Z"/>
  <path class="cls-2" d="m25.68,13.2s6.3-.14,8.79,2.12c2.72,2.48,2.53,2.22,3.7,4.14.65,1.07.23,1.08,1.71,3.46.29.46,2.01,2.62,2.01,2.62,0,0-1.87,2.21-4.93,2.78s-3.58.21-3.58.21c-.81-.54-2.06.49-1.61,1.36.15.29.67.97,1.05.94.21-.02.51-.42.71-.54.41-.24,2.25-.75,2.57-.19l.16.28s.49.16-.6,1.48-1.26.97-1,2.16c.13.58.67.72,1.17.51.79-.34.8-1.39,1.13-2.07.2-.4.56-1.4,1.06-1.53.5-.13,1.31.6,1.45,1.17s.2,1.44.48,1.63.99.46,1.35-.07.43-1.31-.57-1.94c0,0-.88-1.08-.64-1.69s1.05-.22,1.05-.22c0,0,.98.18,1.96.14l-.18,5.76s-29.92.18-31.81.25l-.05-7.05s.25-4.91.68-5.62,1.69-2.46,1.69-2.46c0,0,3.11-2.37,5.22-.27,2.12,2.1.64,4.94.64,4.94,0,0-.41,1.18-2.52,2.88,0,0-1.84,1.31-1.24,2.26s1.42.61,1.62.4,1.18-1.8,1.41-2.06,1.24-.87,2.01.43c0,0,.26.65.08,1.95s-.83,1.39.46,1.92,1.67-1.05,1.67-1.05c0,0-1.09-1.87-.78-3.02s.87-1.01.87-1.01l.96.42s.86.82,1.51.91.92-.14,1.2-.8.39-2.35-.54-2.28-2.87.51-3.65-.59-.87-3.06-.87-3.06c0,0-.47-1.56,1.64-4.21s3.54-3.8,2.57-5.41Z"/>
  <path class="cls-3" d="m11.05,28.32c.05-1.1.11-2.19.23-3.29.2-1.86,1.25-4.07,2.98-4.93,1.42-.7,3.16-.88,4.37.32.9.89,1.29,2.11,1.15,3.36-.06.52.01.66-.12,1.15-.26,1.01-.75,2.4-1.53,3.16-.71.69-2.06.75-2.55,1.63"/>
  <g>
    <polygon class="cls-2" points="43.94 35.47 45.55 35.47 45.49 30.05 44 29.99 43.94 35.47"/>
    <g>
      <path class="cls-3" d="m45.99,31.07s3.94-.39,5.76-1.11c0,0,.1-.12,1.35.59s3.82,1.75,4.5,1.9l.06.24-5.53.02s-.55-.91-1.06.01l-5.04.1-.03-1.74Z"/>
      <path class="cls-3" d="m45.98,34.52s3.93.41,5.75,1.14c0,0,.1.12,1.35-.58s3.83-1.73,4.51-1.87l.06-.24-5.53-.05s-.56.91-1.06-.02l-5.04-.12-.04,1.74Z"/>
    </g>
  </g>
  <path class="cls-2" d="m36.46,11.78s-1.04-7,2.8-10.27c0,0-1.51,6.36-.63,7.11,0,0,.25-3.85,1.84-4.82,0,0-1.12,3.74-.15,5.47,0,0-.07-1.38.69-2.58,0,0-.21,1.38.72,3.41s-.56,3.72-.56,3.72l-4.7-2.04Z"/>
  <g>
    <path class="cls-2" d="m4.75,29.76h-.14c-1.22-.03-2.21.98-2.16,2.19l.07,1.79c.04,1.12.95,2.02,2.08,2.04h.06s.1-6.03.1-6.03Z"/>
    <path class="cls-2" d="m11.57,33.83l.03-.92c.02-.64.32-1.21.79-1.59-.11-.22-.2-.47-.26-.75-.04-.19,0-.44.08-.65l-5.6-.12.05,6.03,2.76.06c1.09.02,2.55.06,3.3.11.69.04-1.16-1.4-1.14-2.16Z"/>
  </g>
</svg>